<svg xmlns="http://www.w3.org/2000/svg" width="94" height="94" viewBox="0 0 94 94">
  <metadata><?xpacket begin="﻿" id="W5M0MpCehiHzreSzNTczkc9d"?>
<x:xmpmeta xmlns:x="adobe:ns:meta/" x:xmptk="Adobe XMP Core 5.6-c138 79.159824, 2016/09/14-01:09:01        ">
   <rdf:RDF xmlns:rdf="http://www.w3.org/1999/02/22-rdf-syntax-ns#">
      <rdf:Description rdf:about=""/>
   </rdf:RDF>
</x:xmpmeta>
                                                                                                    
                                                                                                    
                                                                                                    
                                                                                                    
                                                                                                    
                                                                                                    
                                                                                                    
                                                                                                    
                                                                                                    
                                                                                                    
                                                                                                    
                                                                                                    
                                                                                                    
                                                                                                    
                                                                                                    
                                                                                                    
                                                                                                    
                                                                                                    
                                                                                                    
                                                                                                    
                           
<?xpacket end="w"?></metadata>
<defs>
    <style>
      .cls-1 {
        fill: #f08e7b;
      }

      .cls-2 {
        fill: #000102;
        fill-rule: evenodd;
      }
    </style>
  </defs>
  <circle id="Ellipse_1_copy" data-name="Ellipse 1 copy" class="cls-1" cx="47" cy="47" r="47"/>
  <path class="cls-2" d="M752.5,5868c-1.906,0-3.269-1.43-4.362-2.58a6.643,6.643,0,0,0-1.642-1.43,6.994,6.994,0,0,0-2.324-.18c-1.642,0-3.494.06-4.8-1.23s-1.224-3.15-1.193-4.79a6.847,6.847,0,0,0-.178-2.32,6.635,6.635,0,0,0-1.433-1.65c-1.116-1.05-2.572-2.41-2.572-4.32s1.456-3.27,2.572-4.36a6.772,6.772,0,0,0,1.433-1.64,6.925,6.925,0,0,0,.178-2.33c0-1.63-.062-3.49,1.232-4.79s3.153-1.26,4.8-1.23a3.588,3.588,0,0,0,3.966-1.61c1.054-1.08,2.417-2.54,4.323-2.54s3.269,1.46,4.362,2.58a6.643,6.643,0,0,0,1.642,1.43,6.994,6.994,0,0,0,2.324.18c1.642,0,3.494-.06,4.8,1.23s1.263,3.16,1.232,4.79a6.872,6.872,0,0,0,.178,2.32,6.66,6.66,0,0,0,1.434,1.65c1.077,1.05,2.533,2.41,2.533,4.32s-1.456,3.27-2.572,4.36A6.772,6.772,0,0,0,767,5855.5a6.925,6.925,0,0,0-.178,2.33c0,1.63.062,3.49-1.232,4.79s-3.153,1.26-4.8,1.23a3.551,3.551,0,0,0-3.966,1.61C755.769,5866.54,754.406,5868,752.5,5868Zm-7.577-7.4a7.2,7.2,0,0,1,2.8.43,8.578,8.578,0,0,1,2.727,2.17c0.674,0.71,1.549,1.59,2.045,1.59s1.372-.88,2.045-1.59a6.461,6.461,0,0,1,6.3-2.59,5.575,5.575,0,0,0,2.471-.3c0.333-.29.31-1.54,0.295-2.47a8.837,8.837,0,0,1,.418-3.57,8.4,8.4,0,0,1,2.177-2.72c0.705-.68,1.588-1.55,1.588-2.05s-0.883-1.37-1.588-2.05a8.4,8.4,0,0,1-2.177-2.72,8.837,8.837,0,0,1-.418-3.57,5.719,5.719,0,0,0-.295-2.48c-0.294-.33-1.549-0.31-2.471-0.29a8.835,8.835,0,0,1-3.572-.42,8.6,8.6,0,0,1-2.727-2.17c-0.674-.71-1.549-1.59-2.045-1.59s-1.371.88-2.045,1.59a8.578,8.578,0,0,1-2.727,2.17,8.83,8.83,0,0,1-3.571.42,5.758,5.758,0,0,0-2.472.29c-0.333.3-.31,1.55-0.294,2.48a8.872,8.872,0,0,1-.418,3.57,8.408,8.408,0,0,1-2.177,2.72c-0.705.68-1.589,1.55-1.589,2.05s0.884,1.37,1.589,2.05a8.408,8.408,0,0,1,2.177,2.72,8.854,8.854,0,0,1,.418,3.57,5.664,5.664,0,0,0,.294,2.47c0.295,0.34,1.55.32,2.472,0.3Zm6.028-5.63a1.582,1.582,0,0,1-1-.35l-3.873-3.1a1.6,1.6,0,0,1,2-2.49l2.758,2.21,5.958-5.96a1.6,1.6,0,0,1,2.262,2.26l-6.972,6.97A1.6,1.6,0,0,1,750.951,5854.97Z" transform="translate(-705 -5802)"/>
</svg>
