<svg xmlns="http://www.w3.org/2000/svg" width="94" height="94" viewBox="0 0 94 94">
  <metadata><?xpacket begin="﻿" id="W5M0MpCehiHzreSzNTczkc9d"?>
<x:xmpmeta xmlns:x="adobe:ns:meta/" x:xmptk="Adobe XMP Core 5.6-c138 79.159824, 2016/09/14-01:09:01        ">
   <rdf:RDF xmlns:rdf="http://www.w3.org/1999/02/22-rdf-syntax-ns#">
      <rdf:Description rdf:about=""/>
   </rdf:RDF>
</x:xmpmeta>
                                                                                                    
                                                                                                    
                                                                                                    
                                                                                                    
                                                                                                    
                                                                                                    
                                                                                                    
                                                                                                    
                                                                                                    
                                                                                                    
                                                                                                    
                                                                                                    
                                                                                                    
                                                                                                    
                                                                                                    
                                                                                                    
                                                                                                    
                                                                                                    
                                                                                                    
                                                                                                    
                           
<?xpacket end="w"?></metadata>
<defs>
    <style>
      .cls-1 {
        fill: #f08e7b;
      }

      .cls-2 {
        fill: #000102;
        fill-rule: evenodd;
      }
    </style>
  </defs>
  <circle id="Ellipse_1_copy_2" data-name="Ellipse 1 copy 2" class="cls-1" cx="47" cy="47" r="47"/>
  <path class="cls-2" d="M1337.09,5836.99l-14.52-5.88a1.5,1.5,0,0,0-1.14,0l-14.52,5.88a1.44,1.44,0,0,0-.91,1.33v7.15a24.209,24.209,0,0,0,15.44,22.42,1.45,1.45,0,0,0,1.12,0,24.209,24.209,0,0,0,15.44-22.42v-7.15A1.44,1.44,0,0,0,1337.09,5836.99Zm-2.05,8.48a21.32,21.32,0,0,1-13.04,19.52,21.316,21.316,0,0,1-13.04-19.52v-6.18l13.04-5.28,13.04,5.28v6.18Zm-14.68,4.88,6.37-6.22a1.522,1.522,0,0,1,2.1,0,1.443,1.443,0,0,1,0,2.05l-7.42,7.23a1.5,1.5,0,0,1-2.1,0l-4.14-4.04a1.431,1.431,0,0,1,0-2.04,1.5,1.5,0,0,1,2.1,0Z" transform="translate(-1275 -5802)"/>
</svg>
